<svg xmlns="http://www.w3.org/2000/svg" viewBox="0 0 37.33 50" height="50" width="50"><defs><style>.cls-1{fill:#017cf9;}</style></defs><g id="Layer_2" data-name="Layer 2"><g id="Layer_1-2" data-name="Layer 1"><path class="cls-1" d="M28.93,10.13a9.53,9.53,0,0,0-4.6-8.46A8.53,8.53,0,0,0,20.48.09C18.13-.1,15.79-.1,13.68,1.2a11.32,11.32,0,0,0-3,2.35A10.17,10.17,0,0,0,8.42,10c0,2.54,0,5.08,0,7.62,0,2.28,0,4.56,0,6.84a16.45,16.45,0,0,0,.49,3.89,8.06,8.06,0,0,0,3.41,4.82,10.7,10.7,0,0,0,7.11,2,10.49,10.49,0,0,0,6.5-2.7,9.15,9.15,0,0,0,3-7.13C29,20.24,29,15.18,28.93,10.13Zm-6.5,20.12A6,6,0,0,1,18,31.46,6.18,6.18,0,0,1,13.62,29a3.82,3.82,0,0,1-.76-1.45,14.8,14.8,0,0,1-.39-3q-.06-6.89,0-13.76a11.45,11.45,0,0,1,.39-3,5,5,0,0,1,2.7-3.06c.18-.09.38-.15.56-.24,2.88-1.52,6.06-.05,7.77,2.15a4.86,4.86,0,0,1,.83,3V17.6c0,2.59,0,5.2,0,7.79A5.59,5.59,0,0,1,22.43,30.25Zm14.86-3.37c-.27,1.35-.53,2.7-.83,4A7.12,7.12,0,0,1,36,32.23a17.43,17.43,0,0,1-3.92,5.55,25.15,25.15,0,0,1-4,2.82,20.52,20.52,0,0,1-6,2.11,1.59,1.59,0,0,0-1.37,1.76c0,1,0,1.93,0,2.89a2.76,2.76,0,0,1-1.12,2.27,1.47,1.47,0,0,1-2-.05,2.42,2.42,0,0,1-.9-1.92c0-1,0-1.93,0-2.89,0-1.36-.34-1.75-1.63-2.08a25.19,25.19,0,0,1-5.76-2,18.52,18.52,0,0,1-6.5-5.85A17.65,17.65,0,0,1,0,27a4.39,4.39,0,0,1,0-.44c0-1.35.7-2.24,1.75-2.32a1.78,1.78,0,0,1,1.77.9,4.73,4.73,0,0,1,.65,2.25A12,12,0,0,0,7.8,34.9,13.92,13.92,0,0,0,14,38.59a15,15,0,0,0,5.35.72,27.36,27.36,0,0,0,3.1-.49,12,12,0,0,0,4-1.55c3.71-2.34,6.34-5.41,6.76-10A4.49,4.49,0,0,1,33.87,25a1.86,1.86,0,0,1,3.09.13A2.5,2.5,0,0,1,37.29,26.88Z"/></g></g></svg>