<svg xmlns="http://www.w3.org/2000/svg" viewBox="0 0 50 50"  height="50" width="50"><defs><style>.cls-1{fill:#017cf9;}</style></defs><g id="Layer_2" data-name="Layer 2"><g id="Layer_1-2" data-name="Layer 1"><path class="cls-1" d="M49.81,17.61A19.74,19.74,0,0,0,48,9.47,15.76,15.76,0,0,0,37.59.78,21.73,21.73,0,0,0,31.47,0C27.31,0,23.15,0,19,0c-1.21,0-2.43.1-3.63.2A16.2,16.2,0,0,0,5.8,4.13,15.66,15.66,0,0,0,.86,11.71,23.34,23.34,0,0,0,0,18.37c0,2.17,0,4.35,0,6.52s0,4.42,0,6.63a23.08,23.08,0,0,0,.59,5.37c1.6,7.16,7.18,11.6,14,12.63,2,.3,4,.33,6.05.47a9.94,9.94,0,0,0,1.22,0c1.1-.06,2.2-.17,3.3-.18a16.54,16.54,0,0,0,10.3-3.7c1.27-1,2.47-2.1,3.66-3.19a67,67,0,0,0,6.56-6.38A16.85,16.85,0,0,0,49,30.42a36.32,36.32,0,0,0,1-10.17C50,19.37,49.83,18.49,49.81,17.61Zm-4.27,12.7a16,16,0,0,1-4.42,6.25c-1,.86-1.89,1.86-2.88,2.74-1.7,1.52-3.39,3.05-5.18,4.46a14.17,14.17,0,0,1-3,1.65c-.66.3-1,0-1-.65,0-.08,0-.15,0-.22a49.08,49.08,0,0,0,.43-6,9.17,9.17,0,0,1,5-7.85,9.46,9.46,0,0,1,4.66-1.21,23.74,23.74,0,0,0,5.39-.36C45.58,28.86,45.93,29.31,45.54,30.31Zm.89-8a4.62,4.62,0,0,1-.19,1.09,2.83,2.83,0,0,1-2.62,2.45c-1.31.16-2.64.2-4,.27a16.26,16.26,0,0,0-5.61,1.09,12.06,12.06,0,0,0-7.67,9.91c-.27,1.92-.31,3.88-.49,5.82-.19,2.17-1.14,3.08-3.26,3.32A26,26,0,0,1,14.05,46,12.52,12.52,0,0,1,4.4,38.13a17.23,17.23,0,0,1-1.07-5.94c-.09-2.46-.2-4.93-.33-8.06.16-2.65.2-6,.59-9.25a12.36,12.36,0,0,1,8-10.43,15.9,15.9,0,0,1,6.05-1.11c3.79-.1,7.59-.23,11.38-.2a40.39,40.39,0,0,1,6.49.53A12.77,12.77,0,0,1,46.05,13.81,40.15,40.15,0,0,1,46.43,22.29Z"/></g></g></svg>