<svg xmlns="http://www.w3.org/2000/svg" viewBox="0 0 50 42.77"  height="50" width="50"><defs><style>.cls-1{fill:#017cf9;}</style></defs><g id="Layer_2" data-name="Layer 2"><g id="Layer_1-2" data-name="Layer 1"><path class="cls-1" d="M49.94,15.06a10.64,10.64,0,0,0-1.22-4.76A12,12,0,0,0,46.2,7a11,11,0,0,0-7.44-2.65,6.27,6.27,0,0,1-4.51-1.91A7.78,7.78,0,0,0,28.33,0C26.18.09,24,.14,21.88,0a8,8,0,0,0-5.11,1.56A12.3,12.3,0,0,0,15,3.1a3.45,3.45,0,0,1-2.54,1.12A18.74,18.74,0,0,0,7.56,5,9.27,9.27,0,0,0,2.62,8.11a12.1,12.1,0,0,0-2.57,8q-.11,7.57,0,15.14C.1,34.79,1.13,38,4,40.37a9.08,9.08,0,0,0,6,2.38H25c4.8,0,9.6,0,14.39,0a10.3,10.3,0,0,0,4.3-.93c4.29-1.89,6-5.48,6.22-9.79C50.12,26.4,49.93,20.73,49.94,15.06Zm-3.69,5.31c-.16,3.55,0,7.11,0,10.66a26.64,26.64,0,0,1-.26,3.09A5.84,5.84,0,0,1,41.24,39a12.77,12.77,0,0,1-2.83.3c-4.46,0-8.93,0-13.39,0s-9.18,0-13.77,0a8.21,8.21,0,0,1-4.92-1.42,5,5,0,0,1-2.19-3.33,23.33,23.33,0,0,1-.36-3.44c0-5.17,0-10.33,0-15.5a9,9,0,0,1,.84-4.09A5.61,5.61,0,0,1,9.29,8.26C10.52,8.12,11.75,8,13,7.87a6.08,6.08,0,0,0,4-2,7.93,7.93,0,0,1,6.22-2.57c1.24,0,2.48,0,3.72,0a9.25,9.25,0,0,1,1.49.09,7.16,7.16,0,0,1,4.42,2.31A7,7,0,0,0,37.74,8c1,.1,2.06.18,3.08.29a5.74,5.74,0,0,1,5.11,4.83A38.35,38.35,0,0,1,46.25,20.37ZM35.54,22.74c.31-5.4-4.77-10.5-10.5-10.5A10.7,10.7,0,0,0,14.42,22.8a10.56,10.56,0,1,0,21.12-.06Zm-3.48-.1c0,3.75-1.91,6.34-5.14,7.18a7,7,0,0,1-8.22-3.5c-2.13-4.35-.49-9,4.34-10.42,3.33-1,6.41.17,8.36,3.47A5.73,5.73,0,0,1,32.06,22.64Z"/></g></g></svg>