<svg xmlns="http://www.w3.org/2000/svg" viewBox="0 0 395.88 395.88"><g id="Layer_2" data-name="Layer 2"><g id="Layer_1-2" data-name="Layer 1"><path d="M15.47,395.88A15.47,15.47,0,0,1,.74,375.68l25.51-79.2A197.89,197.89,0,1,1,99.4,369.63L20.2,395.14A15.42,15.42,0,0,1,15.47,395.88Zm85.87-58.58a15.51,15.51,0,0,1,8.2,2.35,166.46,166.46,0,0,0,88.4,25.3c92.09,0,167-74.92,167-167s-74.93-167-167-167-167,74.92-167,167a166.61,166.61,0,0,0,25.3,88.41,15.43,15.43,0,0,1,1.61,12.93L39.43,356.46,96.6,338A15.74,15.74,0,0,1,101.34,337.3ZM217.27,197.94a19.33,19.33,0,1,1-19.33-19.33,19.32,19.32,0,0,1,19.33,19.33m77.32,0a19.33,19.33,0,1,1-19.33-19.33,19.32,19.32,0,0,1,19.33,19.33m-154.64,0a19.33,19.33,0,1,1-19.33-19.33A19.32,19.32,0,0,1,140,197.94" fill="#fff"/></g></g></svg>