<svg xmlns="http://www.w3.org/2000/svg" viewBox="0 0 386.2 386.24"><g id="Layer_2" data-name="Layer 2"><g id="Layer_1-2" data-name="Layer 1"><path d="M193.1,0C88.74-2,2.38,80.74,0,185.09A181.51,181.51,0,0,0,64.37,322.83v55.36A8,8,0,0,0,76.68,385l44.84-28a199.24,199.24,0,0,0,71.58,13.14c104.36,2.06,190.71-80.7,193.1-185C383.81,80.74,297.46-2,193.1,0ZM319.51,142.5,223,239a8,8,0,0,1-10.93.42l-52.11-44.65L76.26,240.43a8,8,0,0,1-9.54-12.75l96.55-96.54a8,8,0,0,1,10.92-.42l52.06,44.63,83.67-45.61a8.07,8.07,0,0,1,9.59,12.76Z" fill="#fafafa"/></g></g></svg>