<svg xmlns="http://www.w3.org/2000/svg" viewBox="0 0 389.76 389.76"><g id="Layer_2" data-name="Layer 2"><g id="Layer_1-2" data-name="Layer 1"><path d="M388.59,114.53c-.95-20.74-4.24-34.91-9.06-47.3a95.49,95.49,0,0,0-22.48-34.52,95.5,95.5,0,0,0-34.51-22.48c-12.4-4.82-26.56-8.11-47.31-9S247.81,0,194.88,0s-59.56.23-80.35,1.17-34.9,4.24-47.3,9.06A95.59,95.59,0,0,0,32.71,32.71,95.33,95.33,0,0,0,10.23,67.23c-4.82,12.39-8.11,26.56-9,47.3S0,142,0,194.88s.23,59.57,1.18,80.35,4.24,34.91,9.06,47.31a95.48,95.48,0,0,0,22.47,34.51,95.49,95.49,0,0,0,34.52,22.48c12.4,4.82,26.56,8.11,47.31,9.06s27.42,1.17,80.35,1.17,59.56-.22,80.34-1.17,34.91-4.24,47.31-9.06a99.59,99.59,0,0,0,57-57c4.82-12.4,8.11-26.57,9.06-47.31s1.17-27.42,1.17-80.35S389.54,135.32,388.59,114.53ZM353.51,273.64c-.86,19-4,29.32-6.71,36.18a64.53,64.53,0,0,1-37,37c-6.87,2.67-17.19,5.84-36.19,6.71-20.54.94-26.71,1.13-78.75,1.13s-58.2-.19-78.75-1.13c-19-.87-29.32-4-36.18-6.71a60.4,60.4,0,0,1-22.41-14.58A60.36,60.36,0,0,1,43,309.82c-2.67-6.86-5.84-17.18-6.71-36.18-.94-20.55-1.14-26.72-1.14-78.75s.2-58.2,1.14-78.76c.87-19,4-29.32,6.71-36.18A60.36,60.36,0,0,1,57.54,57.54,60.28,60.28,0,0,1,80,43c6.86-2.67,17.18-5.84,36.18-6.71,20.55-.94,26.72-1.14,78.75-1.14h0c52,0,58.2.2,78.75,1.14,19,.87,29.32,4,36.19,6.71a60.45,60.45,0,0,1,22.4,14.58A60.16,60.16,0,0,1,346.8,80c2.67,6.87,5.85,17.18,6.71,36.19.94,20.54,1.14,26.71,1.14,78.74s-.2,58.21-1.14,78.76ZM194.88,94.81A100.08,100.08,0,1,0,295,194.88,100.07,100.07,0,0,0,194.88,94.81Zm0,165a65,65,0,1,1,65-65A65,65,0,0,1,194.88,259.84Zm127.42-169a23.39,23.39,0,1,1-23.39-23.39A23.39,23.39,0,0,1,322.3,90.86Z" fill="#fff"/></g></g></svg>