<svg xmlns="http://www.w3.org/2000/svg" viewBox="0 0 320.06 302.54"><g id="Layer_2" data-name="Layer 2"><g id="Layer_1-2" data-name="Layer 1"><path d="M319.74,121.25c-1.86-32.64-19.2-62-46.29-83.72C244.36,14.31,204.33,0,160,0,71.62,0,0,56.87,0,127.16c0,45.64,30.25,85.7,75.64,108.13a186.27,186.27,0,0,0,63.21,18,8.72,8.72,0,0,1,7.71,9.62L143.24,293a8.72,8.72,0,0,0,12.48,8.72c66.21-32,105.84-64.84,129.49-93.32,4.27-5.18,18.32-24.84,21.18-30a107.1,107.1,0,0,0,12.24-34.91,84,84,0,0,0,1.37-9.6A117.15,117.15,0,0,0,319.74,121.25ZM110.28,169.31H77.41a8.23,8.23,0,0,1-8.2-8.2V99.32a8,8,0,0,1,2.41-5.82,8.18,8.18,0,0,1,14,5.82v53.61h24.55a8.19,8.19,0,0,1,0,16.38h.11Zm32.27-6.4a6.44,6.44,0,0,1-6.4,6.4h-3.67a6.41,6.41,0,0,1-6.4-6.4V97.54a6.41,6.41,0,0,1,6.4-6.4h3.58a6.43,6.43,0,0,1,6.4,6.4Zm76.07-2.12a8.53,8.53,0,0,1-8.23,8.52,8.22,8.22,0,0,1-5.56-2.27c-.29-.23-11.29-14.55-20.63-26.59-7-9-13-16.84-13-16.84v37.5a8.19,8.19,0,0,1-16.38,0V99.67a8.45,8.45,0,0,1,7.89-8.53,8.27,8.27,0,0,1,6.43,2.91c.34.41,17.25,22.4,26.76,34.91,3.78,4.89,6.4,8.32,6.4,8.32V99.46a8.18,8.18,0,0,1,16.35,0Zm53.09-38.61a8.18,8.18,0,0,1,0,16.35H247.27v14.55H271.8a8.2,8.2,0,1,1,1,16.37,7.85,7.85,0,0,1-1,0H239a8.19,8.19,0,0,1-8.17-8.2V99.32A8.2,8.2,0,0,1,239,91.14h32.73a8.2,8.2,0,1,1,1,16.38,8,8,0,0,1-1,0H247.27v14.55Z" fill="#fff"/></g></g></svg>