<svg xmlns="http://www.w3.org/2000/svg" viewBox="0 0 382.74 385.29"><g id="Layer_2" data-name="Layer 2"><g id="Layer_1-2" data-name="Layer 1"><rect x="11.91" y="127.11" width="81.4" height="258.18" rx="13.01" fill="#fff"/><circle cx="52.61" cy="52.61" r="52.61" fill="#fff"/><path d="M382.74,373.33a12,12,0,0,1-12,12H311.35a12,12,0,0,1-12-12V264.43c0-16.24,4.76-71.18-42.46-71.18-36.62,0-44.05,37.6-45.54,54.48v125.6a12,12,0,0,1-12,12H142a12,12,0,0,1-12-12V139.07a12,12,0,0,1,12-12h57.48a12,12,0,0,1,12,12v20.26C225,139,245.15,123.22,288.13,123.22c95.16,0,94.61,88.9,94.61,137.75V373.33Z" fill="#fff"/></g></g></svg>