<svg xmlns="http://www.w3.org/2000/svg" viewBox="0 0 393.76 393.76"><g id="Layer_2" data-name="Layer 2"><g id="Layer_1-2" data-name="Layer 1"><path d="M197,210a78.76,78.76,0,1,1,78.76-78.76A78.76,78.76,0,0,1,197,210ZM200.4,0C89.21-1.91-2.06,89.48,0,200.66c2,107,89.46,193.18,197,193.1a196.86,196.86,0,0,0,196.75-197C393.69,89.23,307.45,1.9,200.4,0Zm32.54,29.89c59.56,12.14,118.87,71.43,131,131,9.93,48.67-.86,94.72-25.17,130.94a.45.45,0,0,1-.69.06A198.56,198.56,0,0,0,322,277.07c-79.72-65.49-195.49-57.89-266.09,14.83a.45.45,0,0,1-.69-.06,169.89,169.89,0,0,1-28.84-95C26.38,90.91,123,7.5,232.94,29.92Z" fill="#fff"/></g></g></svg>