<svg xmlns="http://www.w3.org/2000/svg" viewBox="0 0 246.53 305.57"><g id="Layer_2" data-name="Layer 2"><g id="Layer_1-2" data-name="Layer 1"><path d="M124.32,305.57C38.43,305.57,0,263.41,0,231.81c0-16.21,12-27.57,28.5-27.57,36.76,0,27.24,52.7,95.82,52.7,35.11,0,54.49-19,54.49-38.51,0-11.72-5.79-24.7-28.9-30.4l-76.4-19C12,153.59.82,120.37.82,89.16.82,24.34,61.94,0,119.34,0c52.87,0,115.2,29.18,115.2,68.07,0,16.66-14.45,26.35-31,26.35-31.37,0-25.6-43.36-88.78-43.36-31.36,0-48.73,14.18-48.73,34.47s24.77,26.72,46.27,31.61l56.55,12.53c61.94,13.78,77.64,49.89,77.64,83.9,0,52.67-40.49,92-122.21,92Z" fill="#fff"/></g></g></svg>