<svg xmlns="http://www.w3.org/2000/svg" viewBox="0 0 326.75 308.09"><g id="Layer_2" data-name="Layer 2"><g id="Layer_1-2" data-name="Layer 1"><path d="M165.56,304.59h-4.08c-19.78,0-32.87-9.31-44.21-17.16-7.57-5.24-14.55-10.18-22.4-11.64a82.46,82.46,0,0,0-28.8.87,61.24,61.24,0,0,1-7.28,1.17,8.23,8.23,0,0,1-8.72-6.4,39.53,39.53,0,0,1-1.75-7.57c-.58-2.32-1.16-4.65-1.75-6.69-25-3.78-38.69-9.6-42.18-17.45a15.51,15.51,0,0,1-.87-3.49c-.29-3.78,2.62-7.28,6.4-8.15,42.47-7,62-50.62,62.55-52.65l.29-.29a12.76,12.76,0,0,0,1.45-10.77c-2.33-5.52-11.34-8.14-17.16-10.18a40.42,40.42,0,0,1-4.66-1.74C37,146.34,34.94,139.06,35.81,134.12c1.46-7,9.6-11.64,16.58-11.64a12.52,12.52,0,0,1,5.53,1.17,34.72,34.72,0,0,0,14.25,3.78,16.23,16.23,0,0,0,5.24-.88c0-1.74-.58-7-.58-7C75.37,97.75,73.92,70.7,80.9,54.7,102.14,7.28,147.23,3.5,160.32,3.5h6.4c13.38,0,58.47,3.78,79.71,51.2,7.27,16,5.53,43.05,4.07,64.87,0,0-.29,5-.58,7a11.25,11.25,0,0,0,4.07.88,37,37,0,0,0,13.38-3.78,17.18,17.18,0,0,1,6.7-1.46,18.62,18.62,0,0,1,7,1.46c6.11,2.32,10.18,7,10.18,11.92.29,6.69-5.53,12.22-16.87,16.58a36.36,36.36,0,0,1-4.37,1.46h-.29c-5.82,2-14.83,4.65-17.16,10.18A12.84,12.84,0,0,0,254,174.55l.29.59c.88,1.74,20.08,45.67,62.55,52.65a7.58,7.58,0,0,1,6.4,7.86,7.79,7.79,0,0,1-.87,3.49c-3.2,7.85-17.17,13.67-42.19,17.45a28.47,28.47,0,0,0-1.74,6.69c-.58,2.62-1.16,5-1.75,7.57a7.94,7.94,0,0,1-8.43,6.1,29.46,29.46,0,0,1-7.28-.87,81.15,81.15,0,0,0-16.87-1.74,79.74,79.74,0,0,0-11.93.87c-7.85,1.16-14.83,6.4-22.4,11.64-11.34,8.72-24.43,17.74-44.21,17.74Z" fill="#fff" stroke="#000" stroke-linecap="round" stroke-linejoin="round" stroke-width="7"/></g></g></svg>