<svg xmlns="http://www.w3.org/2000/svg" viewBox="0 0 319.99 249.31"><g id="Layer_2" data-name="Layer 2"><g id="Layer_1-2" data-name="Layer 1"><path d="M299.44,1l-5.29,1.92L6.79,106.42A9.63,9.63,0,0,0,7.63,125L82,145.4l13.87,40.73,13.88,40.72a13.21,13.21,0,0,0,21.29,4.75l38.43-36.31L245,246.46c9.23,6.28,22.38,1.63,24.73-8.73l50-220.83C322.1,6,310.58-3,299.44,1ZM262.76,50,132.93,156.1l-6.11,5a6.59,6.59,0,0,0-2.45,4.3L123,176.7l-3.76,31.71a1.46,1.46,0,1,1-2.91.23h0L105.78,177,94.87,144.53A6.58,6.58,0,0,1,98,136.76L233.11,59.32l25.43-14.55c3.69-2.15,7.48,2.53,4.22,5.21Z" fill="#fff"/></g></g></svg>