<svg xmlns="http://www.w3.org/2000/svg" viewBox="0 0 327.1 370.47"><g id="Layer_2" data-name="Layer 2"><g id="Layer_1-2" data-name="Layer 1"><path d="M110.65,192.1c-29.49,0-53.32,23.83-52.89,53a52.39,52.39,0,0,0,25.79,44.1,51.36,51.36,0,0,1-8.35-27.39c-.44-29.21,23.39-53,52.89-53a54.68,54.68,0,0,1,16.64,2.62V152.94a114.88,114.88,0,0,0-16.64-1.24h-.8v43A54.63,54.63,0,0,0,110.65,192.1ZM238.17,16.71H222.62A89.36,89.36,0,0,0,256.4,70.55,90,90,0,0,1,238.17,16.71Z" fill="#f00044"/><path d="M327.1,105.71a91.22,91.22,0,0,1-16.72-1.59V146a144.14,144.14,0,0,1-57-11.55,149.18,149.18,0,0,1-32.4-18.9l.29,129.26a108.16,108.16,0,0,1-32.41,76.87,110.15,110.15,0,0,1-61.61,30.8,114.88,114.88,0,0,1-16.64,1.24,110.3,110.3,0,0,1-67.78-23,98.14,98.14,0,0,0,7,7.63,110.75,110.75,0,0,0,78.25,32,116.31,116.31,0,0,0,16.64-1.23,110.23,110.23,0,0,0,61.61-30.81,108.16,108.16,0,0,0,32.41-76.87l-1.09-129.25a143.24,143.24,0,0,0,32.4,18.89,145.94,145.94,0,0,0,57,11.55" fill="#f00044"/><path d="M49.7,183.89a110.57,110.57,0,0,1,77.59-32.19V136.23A114.88,114.88,0,0,0,110.65,135a110.45,110.45,0,0,0-78.39,32.19,108.59,108.59,0,0,0,.14,154.61,111.78,111.78,0,0,0,10.39,9.08A108.17,108.17,0,0,1,17.37,261.2,109.55,109.55,0,0,1,49.7,183.89Zm260.68-79.77V88.57h-.14a88.72,88.72,0,0,1-53.77-18A88.81,88.81,0,0,0,310.38,104.12Z" fill="#08fff9"/><path d="M125.11,313.29a54.68,54.68,0,0,0,19.62-2.54A52.37,52.37,0,0,0,181,261.12l.07-86.46V16.71h41.56A91.13,91.13,0,0,1,220.87,0H163.62V157.88l-.07,86.46A52.35,52.35,0,0,1,127.29,294a51.53,51.53,0,0,1-19.61,2.55,53.38,53.38,0,0,1-24.13-7.34,53,53,0,0,0,41.56,24.12Z" fill="#08fff9"/><path d="M127.29,352.52a110.15,110.15,0,0,0,61.61-30.8,108.16,108.16,0,0,0,32.41-76.87L221,115.59a142.91,142.91,0,0,0,32.4,18.9,146.11,146.11,0,0,0,57,11.55V104.12a88.81,88.81,0,0,1-53.91-33.57,89,89,0,0,1-33.78-53.84H181.06V174.59L181,261.05a52.38,52.38,0,0,1-36.26,49.63,51.75,51.75,0,0,1-19.62,2.54,53,53,0,0,1-41.56-24.05,52.29,52.29,0,0,1-25.79-44.1c-.43-29.21,23.4-53,52.89-53a54.63,54.63,0,0,1,16.64,2.61v-43A110.57,110.57,0,0,0,49.7,183.82a108.82,108.82,0,0,0-32.26,77.23,107.42,107.42,0,0,0,25.43,69.68,110.52,110.52,0,0,0,67.78,23,105.76,105.76,0,0,0,16.64-1.17Z" fill="#fff"/></g></g></svg>