<svg xmlns="http://www.w3.org/2000/svg" viewBox="0 0 319.97 266.73"><g id="Layer_2" data-name="Layer 2"><g id="Layer_1-2" data-name="Layer 1"><path d="M272.57,101.35C187.48,58.12,90.78,137.57,135,210.44c20.54,34.21,67.93,55.83,124,39.62,11.23,4.34,21.2,11.41,32,16.67-2.91-9.48-5.82-18.82-9-28.13C340,197.35,327.32,129.19,272.57,101.35Zm-67.92,49.16a13.15,13.15,0,1,1-16.79-17C197.66,129.36,209,140.71,204.65,150.51Zm63.68,1.25h.17a13.35,13.35,0,0,1-21,3.61A20.25,20.25,0,0,1,243,145.6c1.37-6.14,5.58-12.48,12.39-12.77C264.72,131.52,273.13,143.15,268.33,151.76Z" fill="#fff"/><path d="M232.14,83.55C226.32,55,206.36,30.86,181.23,17h.35C92.33-33.49-18.77,36.85,2.7,119.79c5.81,24.61,22.77,45.27,43.43,59-4,11.37-7.8,22.72-11.38,34.15,13-6.81,26-13.93,39-20.86A143.51,143.51,0,0,0,122.46,199c-20.36-58.77,32-121,109.68-115.49ZM151.26,49.42a16.42,16.42,0,0,1,22,15.86v.17c0,12.83-17,20.86-26.59,12.16C136.72,70.43,139.63,53,151.26,49.42ZM92.53,68.71c-2.3,11.17-17.19,16.55-25.92,9.05-10.12-7.16-7.27-24.88,4.6-28.48C82.84,44.77,96.05,56.64,92.53,68.71Z" fill="#fff"/></g></g></svg>