<svg xmlns="http://www.w3.org/2000/svg" viewBox="0 0 317.4 319.92"><g id="Layer_2" data-name="Layer 2"><g id="Layer_1-2" data-name="Layer 1"><path d="M271.56,47.06A158.75,158.75,0,0,0,17.25,230.71L.41,312.48a6,6,0,0,0,1,4.74,6.12,6.12,0,0,0,6.51,2.53l80.15-19A158.72,158.72,0,0,0,271.56,47.06Zm-25,199.44a124.34,124.34,0,0,1-143.18,23.28l-11.17-5.53L43.08,275.88l.15-.61,10.18-49.45L47.94,215A124.28,124.28,0,0,1,246.57,70.76a6.44,6.44,0,0,0,.64.64A124.28,124.28,0,0,1,246.57,246.5Z" fill="#fff"/><path d="M242.21,210.23c-6,9.48-15.54,21.09-27.49,24-20.95,5.06-53.09.17-93.09-37.12l-.5-.44C86,164,76.83,136.89,79,115.36c1.22-12.22,11.4-23.27,20-30.49a11.43,11.43,0,0,1,16.12,1.28A11,11,0,0,1,116.91,89l13,29.09a11.35,11.35,0,0,1-1.43,11.63l-6.54,8.5a11.25,11.25,0,0,0-1,12.56c3.67,6.43,12.45,15.89,22.2,24.64,10.94,9.9,23.07,18.94,30.75,22A11.14,11.14,0,0,0,186,194.87l7.59-7.65a11.59,11.59,0,0,1,11.34-2.91L235.69,193a11.65,11.65,0,0,1,7.72,14.54,12,12,0,0,1-1.2,2.66Z" fill="#fff"/></g></g></svg>