<svg xmlns="http://www.w3.org/2000/svg" viewBox="0 0 387.88 283.46"><g id="Layer_2" data-name="Layer 2"><g id="Layer_1-2" data-name="Layer 1"><path d="M378.81,48.41c-7.76-23.87-33.43-38.33-57.05-41.64a1209.58,1209.58,0,0,0-255.64,0C42.5,10.08,16.76,24.4,9.07,48.41a484.74,484.74,0,0,0,0,186.64c7.76,23.83,33.43,38.32,57.05,41.64a1209.58,1209.58,0,0,0,255.64,0c23.62-3.32,49.37-17.63,57.05-41.64A484.35,484.35,0,0,0,378.81,48.41ZM147.54,216V67.38l121,74.33c-40.79,25.07-80.39,49.37-121,74.33Z" fill="#fff"/></g></g></svg>